<svg width="21" height="20" viewBox="0 0 21 20" fill="none" xmlns="http://www.w3.org/2000/svg">
<rect x="0.132812" width="20" height="20" rx="10" fill="#7DB54F"/>
<path d="M6.2637 11.76H7.6637V6.92L7.7637 6.33L7.3637 6.8L6.2637 7.59L5.8837 7.08L8.0837 5.38H8.4437V11.76H9.8137V12.5H6.2637V11.76ZM14.0929 7.09C14.0929 7.44333 14.0263 7.80667 13.8929 8.18C13.7663 8.54667 13.5963 8.91667 13.3829 9.29C13.1763 9.66333 12.9429 10.03 12.6829 10.39C12.4229 10.7433 12.1629 11.08 11.9029 11.4L11.4129 11.83V11.87L12.0529 11.76H14.2329V12.5H10.2529V12.21C10.3996 12.0567 10.5763 11.8667 10.7829 11.64C10.9896 11.4133 11.2029 11.1633 11.4229 10.89C11.6496 10.61 11.8696 10.3167 12.0829 10.01C12.3029 9.69667 12.4996 9.38 12.6729 9.06C12.8529 8.74 12.9963 8.42333 13.1029 8.11C13.2096 7.79667 13.2629 7.5 13.2629 7.22C13.2629 6.89333 13.1696 6.62333 12.9829 6.41C12.7963 6.19 12.5129 6.08 12.1329 6.08C11.8796 6.08 11.6329 6.13333 11.3929 6.24C11.1529 6.34 10.9463 6.45667 10.7729 6.59L10.4429 6.02C10.6763 5.82 10.9529 5.66333 11.2729 5.55C11.5929 5.43667 11.9363 5.38 12.3029 5.38C12.5896 5.38 12.8429 5.42333 13.0629 5.51C13.2829 5.59 13.4696 5.70667 13.6229 5.86C13.7763 6.01333 13.8929 6.19667 13.9729 6.41C14.0529 6.61667 14.0929 6.84333 14.0929 7.09Z" fill="white"/>
</svg>
